<?xml version="1.0" standalone="no"?>
<!DOCTYPE svg PUBLIC "-//W3C//DTD SVG 20010904//EN"
 "http://www.w3.org/TR/2001/REC-SVG-20010904/DTD/svg10.dtd">
<svg version="1.0" xmlns="http://www.w3.org/2000/svg"
 width="800.000000pt" height="800.000000pt" viewBox="0 0 800.000000 800.000000"
 preserveAspectRatio="xMidYMid meet">
<metadata>
Created by potrace 1.11, written by Peter Selinger 2001-2013
</metadata>
<g transform="translate(0.000000,800.000000) scale(0.100000,-0.100000)"
fill="#000000" stroke="none">
<path d="M3757 7949 c-1666 -100 -3099 -1252 -3561 -2863 -202 -702 -202
-1463 -2 -2168 299 -1052 1025 -1935 2006 -2441 871 -449 1898 -553 2855 -291
1321 363 2375 1410 2751 2732 200 703 200 1461 0 2164 -299 1052 -1025 1935
-2006 2441 -622 320 -1333 469 -2043 426z m415 -3063 c180 -35 322 -111 459
-246 194 -192 277 -405 267 -684 -5 -116 -9 -143 -40 -232 -53 -156 -107 -243
-223 -359 -182 -181 -382 -265 -635 -265 -250 0 -452 83 -631 260 -181 180
-270 390 -270 641 0 248 90 461 270 639 134 132 276 210 451 245 88 18 262 18
352 1z m-1606 -1272 c100 -388 377 -735 738 -925 125 -66 197 -94 332 -129
495 -129 1036 17 1404 380 144 142 248 296 327 480 37 88 53 136 83 248 l11
42 949 0 950 0 0 -30 c0 -49 -30 -248 -56 -371 -227 -1080 -975 -1989 -1989
-2417 -432 -183 -839 -264 -1315 -264 -387 0 -690 47 -1050 164 -916 298
-1674 992 -2055 1884 -127 297 -225 670 -251 957 l-7 77 953 -2 952 -3 24 -91z"/>
</g>
</svg>
